<?xml version="1.0" encoding="UTF-8"?><svg xmlns="http://www.w3.org/2000/svg" xmlns:xlink="http://www.w3.org/1999/xlink" width="1012.5" zoomAndPan="magnify" viewBox="0 0 1012.5 487.499991" height="487.499991" preserveAspectRatio="xMidYMid meet" version="1.0"><defs><clipPath id="clip-0"><path d="M 393 64.660156 L 981 64.660156 L 981 422.21875 L 393 422.21875 Z M 393 64.660156 " clip-rule="nonzero"/></clipPath><clipPath id="clip-1"><path d="M 732 146.171875 L 784.398438 146.171875 L 784.398438 199 L 732 199 Z M 732 146.171875 " clip-rule="nonzero"/></clipPath><clipPath id="clip-2"><path d="M 589.5 302 L 752 302 L 752 341.070312 L 589.5 341.070312 Z M 589.5 302 " clip-rule="nonzero"/></clipPath><clipPath id="clip-3"><path d="M 589.5 172 L 759 172 L 759 296 L 589.5 296 Z M 589.5 172 " clip-rule="nonzero"/></clipPath><clipPath id="clip-4"><path d="M 165 64.660156 L 402.507812 64.660156 L 402.507812 422.21875 L 165 422.21875 Z M 165 64.660156 " clip-rule="nonzero"/></clipPath></defs><g clip-path="url(#clip-0)"><path fill="rgb(20.779419%, 32.548523%, 83.139038%)" d="M 461.453125 64.660156 C 452.304688 64.660156 444.9375 71.863281 444.9375 80.808594 L 444.9375 376.21875 C 444.9375 384.726562 443.738281 391.65625 451.488281 392.316406 L 397.210938 392.316406 C 390.789062 392.316406 394.074219 397.316406 394.074219 403.53125 L 394.074219 411.007812 C 394.074219 417.21875 399.242188 422.222656 405.667969 422.222656 L 967.992188 422.222656 C 974.414062 422.222656 979.585938 417.21875 979.585938 411.007812 L 979.585938 403.53125 C 979.585938 397.316406 982.871094 392.316406 976.449219 392.316406 L 922.171875 392.316406 C 929.921875 391.65625 928.722656 384.726562 928.722656 376.21875 L 928.722656 80.808594 C 928.722656 71.863281 921.355469 64.660156 912.207031 64.660156 L 461.449219 64.660156 Z M 604.136719 68.574219 C 606.484375 68.574219 608.386719 70.4375 608.386719 72.734375 C 608.386719 75.027344 606.484375 76.890625 604.136719 76.890625 C 601.789062 76.890625 599.886719 75.027344 599.886719 72.734375 C 599.886719 70.4375 601.789062 68.574219 604.136719 68.574219 Z M 461.050781 80.839844 L 912.609375 80.839844 L 912.609375 376.183594 L 461.050781 376.183594 Z M 613.421875 392.367188 L 760.242188 392.367188 C 760.019531 395.496094 757.84375 397.9375 755.171875 397.9375 L 618.488281 397.9375 C 615.816406 397.9375 613.640625 395.496094 613.421875 392.367188 Z M 911.527344 401.214844 C 914.984375 401.214844 917.785156 403.925781 917.785156 407.269531 C 917.785156 410.613281 914.984375 413.328125 911.527344 413.328125 C 908.066406 413.328125 905.265625 410.613281 905.265625 407.269531 C 905.265625 403.925781 908.066406 401.214844 911.527344 401.214844 Z M 931.273438 401.214844 C 934.730469 401.214844 937.53125 403.925781 937.53125 407.269531 C 937.53125 410.613281 934.730469 413.328125 931.273438 413.328125 C 927.8125 413.328125 925.011719 410.613281 925.011719 407.269531 C 925.011719 403.925781 927.8125 401.214844 931.273438 401.214844 Z M 951.019531 401.214844 C 954.476562 401.214844 957.28125 403.925781 957.28125 407.269531 C 957.28125 410.613281 954.476562 413.328125 951.019531 413.328125 C 947.5625 413.328125 944.757812 410.613281 944.757812 407.269531 C 944.757812 403.925781 947.5625 401.214844 951.019531 401.214844 Z M 419.058594 405.226562 L 451.910156 405.226562 C 453.515625 405.226562 454.808594 406.136719 454.808594 407.269531 C 454.808594 408.402344 453.515625 409.316406 451.910156 409.316406 L 419.058594 409.316406 C 417.453125 409.316406 416.160156 408.402344 416.160156 407.269531 C 416.160156 406.136719 417.453125 405.226562 419.058594 405.226562 Z M 419.058594 405.226562 " fill-opacity="1" fill-rule="nonzero"/></g><path fill="rgb(77.648926%, 25.878906%, 18.818665%)" d="M 738.921875 198.144531 C 738.921875 198.570312 738.878906 198.992188 738.796875 199.410156 C 738.714844 199.832031 738.589844 200.238281 738.425781 200.628906 C 738.265625 201.023438 738.0625 201.398438 737.828125 201.753906 C 737.589844 202.109375 737.320312 202.4375 737.019531 202.738281 C 736.71875 203.039062 736.390625 203.308594 736.035156 203.546875 C 735.679688 203.785156 735.304688 203.984375 734.910156 204.148438 C 734.515625 204.308594 734.109375 204.433594 733.691406 204.515625 C 733.273438 204.597656 732.851562 204.640625 732.425781 204.640625 C 732 204.640625 731.578125 204.597656 731.15625 204.515625 C 730.738281 204.433594 730.332031 204.308594 729.9375 204.148438 C 729.546875 203.984375 729.171875 203.785156 728.816406 203.546875 C 728.460938 203.308594 728.132812 203.039062 727.832031 202.738281 C 727.53125 202.4375 727.261719 202.109375 727.023438 201.753906 C 726.785156 201.398438 726.585938 201.023438 726.421875 200.628906 C 726.261719 200.238281 726.136719 199.832031 726.054688 199.410156 C 725.96875 198.992188 725.929688 198.570312 725.929688 198.144531 C 725.929688 197.71875 725.96875 197.296875 726.054688 196.878906 C 726.136719 196.457031 726.261719 196.050781 726.421875 195.660156 C 726.585938 195.265625 726.785156 194.890625 727.023438 194.535156 C 727.261719 194.179688 727.53125 193.851562 727.832031 193.550781 C 728.132812 193.25 728.460938 192.980469 728.816406 192.742188 C 729.171875 192.507812 729.546875 192.304688 729.9375 192.144531 C 730.332031 191.980469 730.738281 191.855469 731.15625 191.773438 C 731.578125 191.691406 732 191.648438 732.425781 191.648438 C 732.851562 191.648438 733.273438 191.691406 733.691406 191.773438 C 734.109375 191.855469 734.515625 191.980469 734.910156 192.144531 C 735.304688 192.304688 735.679688 192.507812 736.035156 192.742188 C 736.390625 192.980469 736.71875 193.25 737.019531 193.550781 C 737.320312 193.851562 737.589844 194.179688 737.828125 194.535156 C 738.0625 194.890625 738.265625 195.265625 738.425781 195.660156 C 738.589844 196.050781 738.714844 196.457031 738.796875 196.878906 C 738.878906 197.296875 738.921875 197.71875 738.921875 198.144531 Z M 738.921875 198.144531 " fill-opacity="1" fill-rule="nonzero"/><path fill="rgb(77.648926%, 25.878906%, 18.818665%)" d="M 732.425781 169.371094 L 732.425781 182.363281 C 733.460938 182.367188 734.488281 182.46875 735.503906 182.671875 C 736.519531 182.875 737.503906 183.175781 738.460938 183.570312 C 739.417969 183.96875 740.328125 184.453125 741.1875 185.03125 C 742.050781 185.605469 742.84375 186.257812 743.578125 186.992188 C 744.308594 187.722656 744.964844 188.519531 745.539062 189.382812 C 746.117188 190.242188 746.601562 191.152344 747 192.109375 C 747.394531 193.066406 747.695312 194.050781 747.898438 195.066406 C 748.101562 196.082031 748.203125 197.109375 748.207031 198.144531 L 761.199219 198.144531 C 761.199219 197.203125 761.152344 196.261719 761.058594 195.324219 C 760.964844 194.386719 760.824219 193.457031 760.640625 192.535156 C 760.457031 191.609375 760.226562 190.695312 759.953125 189.796875 C 759.679688 188.894531 759.359375 188.007812 759 187.140625 C 758.640625 186.269531 758.234375 185.417969 757.792969 184.585938 C 757.347656 183.757812 756.863281 182.949219 756.339844 182.167969 C 755.816406 181.382812 755.253906 180.628906 754.65625 179.898438 C 754.058594 179.171875 753.429688 178.472656 752.761719 177.808594 C 752.09375 177.140625 751.398438 176.511719 750.671875 175.914062 C 749.941406 175.316406 749.1875 174.753906 748.402344 174.230469 C 747.621094 173.707031 746.8125 173.222656 745.984375 172.777344 C 745.152344 172.335938 744.300781 171.929688 743.429688 171.570312 C 742.5625 171.210938 741.675781 170.890625 740.773438 170.617188 C 739.871094 170.34375 738.960938 170.113281 738.035156 169.929688 C 737.113281 169.746094 736.183594 169.605469 735.246094 169.511719 C 734.308594 169.417969 733.367188 169.371094 732.425781 169.371094 Z M 732.425781 169.371094 " fill-opacity="1" fill-rule="nonzero"/><g clip-path="url(#clip-1)"><path fill="rgb(77.648926%, 25.878906%, 18.818665%)" d="M 732.425781 146.171875 L 732.425781 159.164062 C 733.703125 159.167969 734.976562 159.230469 736.246094 159.355469 C 737.515625 159.484375 738.777344 159.671875 740.027344 159.921875 C 741.277344 160.171875 742.515625 160.480469 743.734375 160.851562 C 744.957031 161.222656 746.15625 161.652344 747.335938 162.144531 C 748.515625 162.632812 749.667969 163.175781 750.792969 163.78125 C 751.917969 164.382812 753.011719 165.039062 754.070312 165.746094 C 755.132812 166.457031 756.15625 167.214844 757.144531 168.023438 C 758.128906 168.835938 759.074219 169.691406 759.976562 170.59375 C 760.878906 171.496094 761.734375 172.441406 762.546875 173.425781 C 763.355469 174.414062 764.113281 175.4375 764.824219 176.5 C 765.53125 177.558594 766.1875 178.652344 766.789062 179.777344 C 767.394531 180.902344 767.9375 182.054688 768.425781 183.234375 C 768.917969 184.414062 769.347656 185.613281 769.71875 186.832031 C 770.089844 188.054688 770.398438 189.292969 770.648438 190.542969 C 770.898438 191.792969 771.085938 193.054688 771.214844 194.324219 C 771.339844 195.59375 771.402344 196.867188 771.40625 198.144531 L 784.398438 198.144531 C 784.394531 196.441406 784.3125 194.746094 784.140625 193.050781 C 783.972656 191.359375 783.722656 189.679688 783.390625 188.007812 C 783.054688 186.339844 782.640625 184.691406 782.148438 183.0625 C 781.652344 181.4375 781.078125 179.835938 780.425781 178.265625 C 779.773438 176.691406 779.046875 175.15625 778.242188 173.65625 C 777.441406 172.15625 776.566406 170.699219 775.621094 169.285156 C 774.675781 167.871094 773.664062 166.503906 772.582031 165.1875 C 771.503906 163.875 770.363281 162.613281 769.160156 161.410156 C 767.957031 160.207031 766.695312 159.066406 765.378906 157.988281 C 764.066406 156.90625 762.699219 155.894531 761.285156 154.949219 C 759.871094 154.003906 758.414062 153.128906 756.914062 152.328125 C 755.414062 151.523438 753.878906 150.796875 752.304688 150.144531 C 750.734375 149.492188 749.132812 148.917969 747.503906 148.421875 C 745.878906 147.929688 744.230469 147.515625 742.5625 147.179688 C 740.890625 146.847656 739.210938 146.597656 737.519531 146.429688 C 735.824219 146.257812 734.128906 146.175781 732.425781 146.171875 Z M 732.425781 146.171875 " fill-opacity="1" fill-rule="nonzero"/></g><g clip-path="url(#clip-2)"><path fill="rgb(77.648926%, 25.878906%, 18.818665%)" d="M 706.4375 302.089844 C 705.441406 302.09375 704.449219 302.175781 703.464844 302.332031 C 702.476562 302.488281 701.507812 302.71875 700.558594 303.023438 C 699.609375 303.328125 698.6875 303.703125 697.792969 304.152344 C 696.902344 304.597656 696.046875 305.109375 695.234375 305.6875 C 694.421875 306.265625 693.65625 306.902344 692.941406 307.597656 C 692.222656 308.296875 691.566406 309.042969 690.964844 309.835938 C 690.363281 310.632812 689.824219 311.472656 689.351562 312.351562 C 688.878906 313.230469 688.476562 314.140625 688.144531 315.082031 L 589.5 315.082031 L 589.5 328.074219 L 688.144531 328.074219 C 688.472656 329.019531 688.875 329.933594 689.34375 330.8125 C 689.8125 331.695312 690.347656 332.535156 690.949219 333.335938 C 691.546875 334.132812 692.207031 334.882812 692.921875 335.578125 C 693.636719 336.277344 694.402344 336.914062 695.21875 337.492188 C 696.03125 338.074219 696.886719 338.585938 697.78125 339.03125 C 698.675781 339.480469 699.597656 339.855469 700.550781 340.15625 C 701.503906 340.460938 702.472656 340.691406 703.460938 340.84375 C 704.445312 340.996094 705.441406 341.074219 706.4375 341.074219 C 707.4375 341.074219 708.433594 340.996094 709.417969 340.84375 C 710.40625 340.691406 711.375 340.460938 712.328125 340.15625 C 713.28125 339.855469 714.203125 339.480469 715.097656 339.03125 C 715.992188 338.585938 716.847656 338.074219 717.660156 337.492188 C 718.476562 336.914062 719.242188 336.277344 719.957031 335.578125 C 720.671875 334.882812 721.332031 334.132812 721.929688 333.335938 C 722.53125 332.535156 723.066406 331.695312 723.535156 330.8125 C 724.003906 329.933594 724.40625 329.019531 724.734375 328.074219 L 751.914062 328.074219 L 751.914062 315.082031 L 724.734375 315.082031 C 724.402344 314.140625 724 313.230469 723.527344 312.351562 C 723.054688 311.472656 722.515625 310.632812 721.914062 309.835938 C 721.3125 309.042969 720.65625 308.296875 719.9375 307.597656 C 719.222656 306.902344 718.457031 306.265625 717.644531 305.6875 C 716.832031 305.109375 715.976562 304.597656 715.085938 304.152344 C 714.191406 303.703125 713.269531 303.328125 712.320312 303.023438 C 711.371094 302.71875 710.402344 302.488281 709.414062 302.332031 C 708.429688 302.175781 707.4375 302.09375 706.4375 302.089844 Z M 706.4375 328.074219 C 706.011719 328.074219 705.589844 328.035156 705.171875 327.949219 C 704.753906 327.867188 704.347656 327.746094 703.953125 327.582031 C 703.558594 327.417969 703.183594 327.21875 702.828125 326.980469 C 702.476562 326.742188 702.148438 326.472656 701.84375 326.171875 C 701.542969 325.871094 701.273438 325.542969 701.039062 325.1875 C 700.800781 324.832031 700.601562 324.460938 700.4375 324.066406 C 700.273438 323.671875 700.152344 323.265625 700.066406 322.847656 C 699.984375 322.429688 699.941406 322.003906 699.941406 321.578125 C 699.941406 321.152344 699.984375 320.730469 700.066406 320.3125 C 700.152344 319.894531 700.273438 319.488281 700.4375 319.09375 C 700.601562 318.699219 700.800781 318.324219 701.039062 317.96875 C 701.273438 317.613281 701.542969 317.285156 701.84375 316.984375 C 702.148438 316.683594 702.476562 316.414062 702.828125 316.175781 C 703.183594 315.941406 703.558594 315.742188 703.953125 315.578125 C 704.347656 315.414062 704.753906 315.289062 705.171875 315.207031 C 705.589844 315.125 706.011719 315.082031 706.4375 315.082031 C 706.867188 315.082031 707.289062 315.125 707.707031 315.207031 C 708.125 315.289062 708.53125 315.414062 708.925781 315.578125 C 709.320312 315.742188 709.695312 315.941406 710.046875 316.175781 C 710.402344 316.414062 710.730469 316.683594 711.03125 316.984375 C 711.335938 317.285156 711.605469 317.613281 711.839844 317.96875 C 712.078125 318.324219 712.277344 318.699219 712.441406 319.09375 C 712.605469 319.488281 712.726562 319.894531 712.8125 320.3125 C 712.894531 320.730469 712.9375 321.152344 712.9375 321.578125 C 712.9375 322.003906 712.894531 322.429688 712.8125 322.847656 C 712.726562 323.265625 712.605469 323.671875 712.441406 324.066406 C 712.277344 324.460938 712.078125 324.832031 711.839844 325.1875 C 711.605469 325.542969 711.335938 325.871094 711.03125 326.171875 C 710.730469 326.472656 710.402344 326.742188 710.046875 326.980469 C 709.695312 327.21875 709.320312 327.417969 708.925781 327.582031 C 708.53125 327.746094 708.125 327.867188 707.707031 327.949219 C 707.289062 328.035156 706.867188 328.074219 706.4375 328.074219 Z M 706.4375 328.074219 " fill-opacity="1" fill-rule="nonzero"/></g><g clip-path="url(#clip-3)"><path fill="rgb(77.648926%, 25.878906%, 18.818665%)" d="M 745.417969 276.101562 C 745.417969 276.53125 745.378906 276.953125 745.292969 277.371094 C 745.210938 277.789062 745.085938 278.195312 744.925781 278.589844 C 744.761719 278.984375 744.5625 279.359375 744.324219 279.710938 C 744.085938 280.066406 743.816406 280.394531 743.515625 280.695312 C 743.214844 281 742.886719 281.269531 742.53125 281.503906 C 742.175781 281.742188 741.800781 281.941406 741.40625 282.105469 C 741.015625 282.269531 740.609375 282.390625 740.191406 282.476562 C 739.769531 282.558594 739.347656 282.601562 738.921875 282.601562 L 608.992188 282.601562 C 608.566406 282.601562 608.140625 282.558594 607.722656 282.476562 C 607.304688 282.390625 606.898438 282.269531 606.503906 282.105469 C 606.109375 281.941406 605.738281 281.742188 605.382812 281.503906 C 605.027344 281.269531 604.699219 281 604.398438 280.695312 C 604.097656 280.394531 603.828125 280.066406 603.589844 279.710938 C 603.351562 279.359375 603.152344 278.984375 602.988281 278.589844 C 602.824219 278.195312 602.703125 277.789062 602.621094 277.371094 C 602.535156 276.953125 602.496094 276.53125 602.496094 276.101562 L 602.496094 191.648438 C 602.496094 191.222656 602.535156 190.800781 602.621094 190.378906 C 602.703125 189.960938 602.824219 189.554688 602.988281 189.160156 C 603.152344 188.769531 603.351562 188.394531 603.589844 188.039062 C 603.828125 187.683594 604.097656 187.355469 604.398438 187.054688 C 604.699219 186.753906 605.027344 186.484375 605.382812 186.246094 C 605.738281 186.007812 606.109375 185.808594 606.503906 185.644531 C 606.898438 185.484375 607.304688 185.359375 607.722656 185.277344 C 608.140625 185.191406 608.566406 185.152344 608.992188 185.152344 L 719.433594 185.152344 L 719.433594 172.160156 L 608.992188 172.160156 C 608.351562 172.160156 607.714844 172.191406 607.082031 172.253906 C 606.445312 172.316406 605.816406 172.410156 605.1875 172.53125 C 604.5625 172.65625 603.945312 172.8125 603.332031 172.996094 C 602.722656 173.183594 602.121094 173.398438 601.53125 173.640625 C 600.941406 173.886719 600.367188 174.160156 599.804688 174.460938 C 599.242188 174.761719 598.695312 175.089844 598.164062 175.441406 C 597.632812 175.796875 597.121094 176.175781 596.628906 176.582031 C 596.132812 176.988281 595.660156 177.414062 595.210938 177.867188 C 594.757812 178.316406 594.332031 178.789062 593.925781 179.285156 C 593.519531 179.777344 593.140625 180.289062 592.785156 180.820312 C 592.429688 181.351562 592.105469 181.898438 591.804688 182.460938 C 591.5 183.023438 591.230469 183.601562 590.984375 184.191406 C 590.742188 184.78125 590.527344 185.378906 590.339844 185.992188 C 590.15625 186.601562 590 187.21875 589.875 187.847656 C 589.75 188.472656 589.65625 189.101562 589.59375 189.738281 C 589.53125 190.371094 589.5 191.011719 589.5 191.648438 L 589.5 276.101562 C 589.5 276.742188 589.53125 277.378906 589.59375 278.011719 C 589.65625 278.648438 589.75 279.28125 589.875 279.90625 C 590 280.53125 590.15625 281.148438 590.339844 281.761719 C 590.527344 282.371094 590.742188 282.972656 590.984375 283.5625 C 591.230469 284.152344 591.5 284.726562 591.804688 285.289062 C 592.105469 285.851562 592.429688 286.398438 592.785156 286.929688 C 593.140625 287.460938 593.519531 287.972656 593.925781 288.46875 C 594.332031 288.960938 594.757812 289.433594 595.210938 289.882812 C 595.660156 290.335938 596.132812 290.765625 596.628906 291.167969 C 597.121094 291.574219 597.632812 291.953125 598.164062 292.308594 C 598.695312 292.664062 599.242188 292.992188 599.804688 293.292969 C 600.367188 293.59375 600.941406 293.863281 601.53125 294.109375 C 602.121094 294.355469 602.722656 294.566406 603.332031 294.753906 C 603.945312 294.9375 604.5625 295.09375 605.1875 295.21875 C 605.816406 295.34375 606.445312 295.4375 607.082031 295.5 C 607.714844 295.5625 608.351562 295.59375 608.992188 295.59375 L 738.921875 295.59375 C 739.558594 295.59375 740.195312 295.5625 740.832031 295.5 C 741.46875 295.4375 742.097656 295.34375 742.722656 295.21875 C 743.351562 295.09375 743.96875 294.9375 744.578125 294.753906 C 745.191406 294.566406 745.789062 294.355469 746.378906 294.109375 C 746.96875 293.863281 747.546875 293.59375 748.109375 293.292969 C 748.671875 292.992188 749.21875 292.664062 749.75 292.308594 C 750.28125 291.953125 750.792969 291.574219 751.285156 291.167969 C 751.78125 290.765625 752.253906 290.335938 752.703125 289.882812 C 753.15625 289.433594 753.582031 288.960938 753.988281 288.46875 C 754.394531 287.972656 754.773438 287.460938 755.128906 286.929688 C 755.480469 286.398438 755.808594 285.851562 756.109375 285.289062 C 756.410156 284.726562 756.683594 284.152344 756.929688 283.5625 C 757.171875 282.972656 757.386719 282.371094 757.574219 281.761719 C 757.757812 281.148438 757.914062 280.53125 758.039062 279.90625 C 758.160156 279.28125 758.253906 278.648438 758.316406 278.011719 C 758.378906 277.378906 758.410156 276.742188 758.410156 276.101562 L 758.410156 211.136719 L 745.417969 211.136719 Z M 745.417969 276.101562 " fill-opacity="1" fill-rule="nonzero"/></g><path fill="rgb(77.648926%, 25.878906%, 18.818665%)" d="M 660.964844 208.085938 L 660.964844 259.667969 C 660.960938 260.328125 661.132812 260.9375 661.484375 261.496094 C 661.835938 262.054688 662.304688 262.476562 662.902344 262.765625 C 663.496094 263.050781 664.121094 263.15625 664.777344 263.082031 C 665.429688 263.007812 666.015625 262.761719 666.53125 262.351562 L 698.65625 236.558594 C 698.855469 236.398438 699.039062 236.214844 699.195312 236.015625 C 699.355469 235.8125 699.492188 235.59375 699.605469 235.363281 C 699.714844 235.132812 699.800781 234.890625 699.855469 234.636719 C 699.914062 234.386719 699.941406 234.132812 699.941406 233.875 C 699.941406 233.617188 699.914062 233.363281 699.855469 233.113281 C 699.800781 232.863281 699.714844 232.621094 699.605469 232.386719 C 699.492188 232.15625 699.355469 231.9375 699.195312 231.738281 C 699.039062 231.535156 698.855469 231.355469 698.65625 231.191406 L 666.53125 205.402344 C 666.015625 204.988281 665.429688 204.742188 664.777344 204.667969 C 664.121094 204.59375 663.496094 204.699219 662.902344 204.988281 C 662.304688 205.273438 661.835938 205.695312 661.484375 206.253906 C 661.132812 206.816406 660.960938 207.425781 660.964844 208.085938 Z M 660.964844 208.085938 " fill-opacity="1" fill-rule="nonzero"/><g clip-path="url(#clip-4)"><path fill="rgb(20.779419%, 32.548523%, 83.139038%)" d="M 234.414062 64.65625 C 233.902344 64.648438 233.683594 64.699219 233.953125 64.785156 C 234.074219 64.8125 234.242188 64.828125 234.414062 64.832031 C 234.585938 64.835938 234.761719 64.824219 234.894531 64.800781 C 235.140625 64.722656 234.925781 64.667969 234.414062 64.65625 Z M 241.898438 65.132812 C 241.957031 65.132812 242.023438 65.144531 242.09375 65.171875 C 242.304688 65.285156 242.492188 65.394531 242.492188 65.449219 C 242.492188 65.503906 242.300781 65.554688 242.085938 65.550781 C 241.871094 65.546875 241.683594 65.4375 241.6875 65.273438 C 241.6875 65.183594 241.773438 65.128906 241.898438 65.132812 Z M 249.839844 67.847656 C 249.921875 67.847656 250.054688 67.960938 250.132812 68.121094 C 250.210938 68.257812 250.152344 68.390625 250.019531 68.390625 C 249.855469 68.386719 249.722656 68.25 249.726562 68.113281 C 249.730469 67.953125 249.785156 67.847656 249.839844 67.847656 Z M 227.875 113.691406 C 227.878906 113.691406 227.886719 113.695312 227.890625 113.695312 L 227.886719 113.695312 C 227.828125 113.742188 227.769531 113.789062 227.707031 113.835938 C 227.742188 113.78125 227.789062 113.734375 227.832031 113.710938 C 227.847656 113.699219 227.863281 113.691406 227.875 113.691406 Z M 194.785156 169.023438 C 194.894531 169.023438 195.015625 171.128906 195.078125 173.664062 C 195.140625 176.226562 195.289062 178.46875 195.421875 178.632812 C 195.789062 179.125 195.929688 187.644531 195.554688 187.636719 C 195.390625 187.636719 194.519531 188.105469 193.621094 188.679688 C 192.652344 189.308594 192.246094 189.558594 191.953125 189.554688 C 191.769531 189.550781 191.628906 189.441406 191.425781 189.261719 C 191.132812 188.988281 190.894531 188.632812 190.898438 188.441406 C 190.902344 188.28125 190.746094 187.957031 190.5625 187.761719 C 190.375 187.570312 190.140625 187.1875 190.035156 186.945312 C 189.960938 186.675781 189.324219 186.070312 188.660156 185.570312 C 187.671875 184.851562 187.464844 184.527344 187.476562 183.878906 C 187.484375 183.421875 187.203125 182.5 186.835938 181.847656 C 186.472656 181.21875 186.183594 180.648438 186.1875 180.59375 C 186.1875 180.566406 186.753906 180.46875 187.484375 180.375 C 188.1875 180.28125 189.027344 180 189.332031 179.734375 C 190.152344 179.101562 192.777344 174.109375 192.792969 173.21875 C 192.808594 172.464844 194.433594 169.015625 194.785156 169.023438 Z M 246.339844 350.621094 C 246.28125 350.621094 246.230469 350.769531 246.25 351.003906 C 246.246094 351.1875 246.273438 351.289062 246.316406 351.289062 C 246.34375 351.289062 246.375 351.25 246.40625 351.167969 C 246.492188 350.980469 246.46875 350.738281 246.390625 350.65625 C 246.375 350.632812 246.355469 350.621094 246.339844 350.621094 Z M 242.875 64.6875 C 242.375 64.679688 241.734375 64.808594 241.121094 65.074219 C 239.898438 65.617188 239.589844 66.289062 240.53125 66.359375 C 240.800781 66.363281 240.855469 66.445312 240.664062 66.523438 C 240.636719 66.53125 240.601562 66.53125 240.566406 66.53125 C 240.347656 66.527344 240 66.398438 239.726562 66.207031 C 239.40625 65.960938 238.816406 65.761719 238.441406 65.753906 C 237.902344 65.746094 237.847656 65.691406 238.175781 65.453125 C 238.355469 65.328125 238.398438 65.265625 238.273438 65.265625 L 238.269531 65.265625 C 238.1875 65.261719 238.023438 65.289062 237.773438 65.335938 C 237.339844 65.4375 236.933594 65.59375 236.875 65.726562 C 236.835938 65.816406 236.738281 65.871094 236.609375 65.867188 C 236.550781 65.867188 236.484375 65.851562 236.414062 65.824219 C 236.355469 65.800781 236.292969 65.785156 236.230469 65.785156 C 236.089844 65.78125 235.949219 65.839844 235.875 65.949219 C 235.761719 66.140625 235.617188 66.226562 235.488281 66.226562 C 235.328125 66.222656 235.195312 66.074219 235.203125 65.804688 C 235.207031 65.589844 235.125 65.492188 234.867188 65.484375 C 234.738281 65.484375 234.570312 65.503906 234.34375 65.546875 C 233.855469 65.644531 233.421875 65.824219 233.363281 65.960938 C 233.308594 66.09375 232.929688 66.195312 232.550781 66.214844 C 232.144531 66.207031 231.984375 66.285156 232.171875 66.367188 C 232.734375 66.59375 232.511719 66.941406 231.699219 67.035156 C 231.542969 67.054688 231.414062 67.0625 231.3125 67.0625 C 231.050781 67.058594 230.976562 66.972656 231.058594 66.78125 C 231.117188 66.636719 231.074219 66.574219 230.957031 66.570312 C 230.597656 66.5625 229.566406 67.152344 228.960938 67.792969 C 228.601562 68.21875 228.140625 68.535156 227.949219 68.53125 C 226.953125 68.511719 225.117188 71.550781 225.085938 73.304688 C 225.074219 73.898438 224.957031 74.460938 224.792969 74.539062 C 224.65625 74.617188 224.515625 74.9375 224.511719 75.207031 C 224.503906 75.503906 224.257812 75.851562 223.957031 76.007812 C 223.65625 76.164062 223.40625 76.535156 223.402344 76.804688 C 223.398438 77.101562 223.285156 77.339844 223.125 77.339844 C 222.90625 77.335938 222.625 78.085938 222.078125 80.015625 C 222.019531 80.230469 221.859375 81.65625 221.75 83.164062 C 221.601562 85.34375 221.644531 86.046875 221.933594 86.535156 C 222.140625 86.890625 222.394531 87.730469 222.464844 88.460938 C 222.519531 88.867188 222.601562 89.28125 222.691406 89.597656 L 222.6875 89.597656 C 222.367188 91.320312 222.207031 92.226562 222.210938 92.320312 C 222.097656 93.089844 222.089844 93.707031 222.195312 94.171875 C 223.15625 97.1875 224.355469 98.707031 225.796875 98.734375 C 225.886719 98.734375 225.980469 98.730469 226.070312 98.71875 C 226.070312 98.722656 226.070312 98.722656 226.070312 98.726562 C 226.027344 98.785156 225.976562 98.84375 225.917969 98.902344 C 225.667969 99.140625 225.667969 99.300781 225.90625 99.546875 C 225.996094 99.644531 226.066406 99.753906 226.113281 99.867188 C 226.125 100.140625 226.136719 100.394531 226.148438 100.640625 C 226.09375 100.78125 226.003906 100.894531 225.878906 100.949219 C 225.769531 100.996094 225.777344 101.023438 225.886719 101.027344 C 225.949219 101.027344 226.046875 101.019531 226.171875 101.003906 C 226.210938 101.648438 226.261719 102.191406 226.316406 102.636719 L 226.597656 104.414062 C 226.820312 106.195312 226.964844 107.273438 227.035156 107.640625 C 227.175781 108.492188 227.328125 109.203125 227.492188 109.777344 C 227.785156 110.894531 228.269531 111.832031 228.945312 112.59375 L 228.941406 112.59375 C 228.777344 112.6875 228.472656 112.757812 227.984375 112.851562 C 227.523438 112.949219 226.789062 113.3125 226.351562 113.65625 C 225.914062 114.023438 224.464844 115.105469 223.097656 116.050781 C 222.769531 116.289062 222.457031 116.519531 222.164062 116.738281 C 204.863281 121.613281 195.070312 124.414062 192.785156 125.144531 C 190.789062 125.71875 189.46875 126.398438 188.824219 127.1875 C 188.171875 127.882812 187.511719 129.167969 186.84375 131.039062 L 177.371094 157.753906 L 177.367188 157.753906 C 172.628906 166.089844 169.5 172.128906 167.976562 175.878906 C 165.917969 180.695312 165.167969 184.417969 165.726562 187.042969 C 166.074219 189.328125 167.558594 191.980469 170.183594 195 C 173.789062 199.191406 180.183594 205.945312 189.367188 215.265625 L 185.085938 241.933594 C 186.933594 243.167969 189.015625 243.996094 191.320312 244.417969 C 193.464844 244.832031 196.449219 245.160156 200.269531 245.402344 C 199.476562 248.394531 198.96875 251.992188 198.742188 256.1875 C 198.457031 261.199219 198.523438 267.222656 198.941406 274.261719 C 198.929688 276.117188 199.957031 288.234375 202.015625 310.609375 C 202.355469 314.992188 202.554688 319.199219 202.617188 323.238281 C 202.6875 327.675781 202.582031 332.09375 202.300781 336.492188 C 202.214844 338.507812 201.683594 344.292969 200.703125 353.851562 L 200.371094 358.734375 C 200.207031 362.40625 200.269531 366.230469 200.566406 370.207031 C 201.222656 378.585938 202.460938 386.234375 204.28125 393.160156 C 205.484375 397.664062 206.726562 400.460938 208.015625 401.558594 L 208.011719 401.558594 C 207.855469 402.988281 207.609375 405.007812 207.277344 407.625 L 207.09375 409.832031 C 206.984375 411.972656 207.164062 413.734375 207.632812 415.105469 C 208.492188 418.257812 211.722656 420.195312 217.316406 420.929688 C 218.546875 421.035156 219.6875 421.101562 220.738281 421.117188 C 225.519531 421.207031 228.457031 420.375 229.550781 418.628906 C 231.015625 416.820312 230.550781 412.226562 228.148438 404.847656 C 227.34375 402.445312 226.59375 400.535156 225.902344 399.125 C 225.917969 399.101562 225.929688 399.078125 225.929688 399.054688 C 225.929688 398.96875 225.839844 398.816406 225.695312 398.625 L 225.691406 398.625 C 228.269531 392.472656 229.660156 387.09375 229.867188 382.484375 C 229.917969 380.882812 229.839844 379.449219 229.628906 378.191406 L 227.371094 367.4375 C 226.96875 365.128906 226.699219 362.746094 226.5625 360.289062 C 226.257812 355.082031 226.585938 348.9375 227.546875 341.855469 C 228.316406 336.046875 229.601562 328.597656 231.40625 319.515625 C 231.824219 317.175781 233.789062 307.828125 237.300781 291.46875 C 237.796875 293.75 238.347656 296.09375 238.953125 298.5 L 244.589844 320.023438 C 245.515625 323.96875 246.191406 327.808594 246.621094 331.550781 C 246.964844 334.625 247.160156 337.738281 247.210938 340.890625 C 247.003906 341.171875 247.023438 341.339844 247.203125 341.558594 C 247.207031 341.566406 247.214844 341.574219 247.222656 341.582031 C 247.238281 343.582031 247.199219 345.601562 247.101562 347.632812 C 247.097656 347.703125 247.097656 347.769531 247.09375 347.839844 L 247.089844 347.839844 L 247.085938 348.046875 L 247.082031 348.046875 C 246.976562 350.285156 246.789062 352.90625 246.523438 355.914062 C 245.003906 370.941406 244.242188 378.949219 244.238281 379.933594 C 244.238281 379.960938 244.238281 379.984375 244.234375 380.007812 C 243.441406 386.265625 242.984375 390.644531 242.863281 393.140625 C 242.78125 394.523438 242.746094 395.84375 242.761719 397.097656 L 242.996094 403.925781 C 243.050781 404.347656 242.773438 406.09375 242.164062 409.15625 L 242.054688 410.601562 C 242.0625 411.734375 242.324219 412.617188 242.835938 413.257812 C 243.476562 414.132812 244.785156 414.804688 246.753906 415.277344 C 247.46875 415.507812 249.296875 415.800781 252.25 416.152344 L 252.246094 416.152344 C 252.285156 416.175781 252.308594 416.195312 252.324219 416.21875 C 252.457031 416.410156 255.507812 417.570312 256.449219 417.773438 C 256.71875 417.832031 257.304688 418.167969 257.785156 418.5 C 259.078125 419.5 263.132812 420.664062 266.871094 421.257812 L 266.867188 421.257812 C 267.128906 421.5 267.285156 421.625 267.34375 421.628906 C 267.792969 421.910156 268.332031 422.078125 268.964844 422.132812 C 273.183594 422.164062 276.066406 421.800781 277.601562 421.042969 C 280.070312 419.988281 281.410156 418.640625 281.621094 417.003906 C 281.683594 416.160156 281.320312 415.269531 280.527344 414.320312 C 280.511719 414.132812 278.84375 412.515625 275.519531 409.46875 C 273.5625 406.988281 270.3125 403.300781 265.769531 398.402344 L 265.765625 398.402344 C 265.78125 398.375 265.796875 398.347656 265.8125 398.324219 L 265.808594 398.324219 C 266.386719 398.136719 267.035156 397.398438 266.832031 397.070312 C 266.808594 397.019531 266.707031 396.96875 266.554688 396.921875 C 268.351562 393.339844 269.902344 388.800781 271.199219 383.308594 C 273.472656 373.910156 275.230469 359.789062 276.476562 340.9375 C 277.550781 324.132812 277.71875 307.980469 276.984375 292.472656 C 276.605469 282.761719 275.453125 270.488281 273.535156 255.65625 L 273.53125 255.65625 C 275.875 255.300781 278.894531 252.953125 282.589844 248.617188 L 268.988281 195.3125 C 269.75 196 270.636719 196.730469 271.648438 197.5 C 274.230469 199.425781 276.210938 200.664062 277.589844 201.214844 C 278.230469 201.496094 278.960938 201.644531 279.777344 201.65625 C 280.371094 201.667969 281.007812 201.609375 281.691406 201.480469 C 282.773438 201.296875 284.34375 200.960938 286.394531 200.480469 L 286.394531 200.476562 C 286.980469 200.429688 287.355469 200.375 287.417969 200.324219 C 287.5 200.257812 287.699219 200.179688 287.957031 200.105469 C 288.152344 200.054688 288.351562 200.007812 288.546875 199.960938 L 288.542969 199.960938 C 288.746094 199.917969 288.964844 199.878906 289.179688 199.84375 C 289.992188 199.699219 291.425781 199.453125 292.398438 199.257812 C 293.375 199.058594 294.890625 198.761719 295.785156 198.617188 C 296.675781 198.445312 298.003906 198.171875 298.734375 197.96875 C 299.441406 197.765625 300.28125 197.621094 300.578125 197.625 C 301.089844 197.632812 302.472656 197.253906 304.859375 196.488281 C 305.375 196.308594 306.242188 196.027344 306.757812 195.875 C 307.046875 195.777344 307.601562 195.59375 308.230469 195.398438 L 308.234375 195.398438 L 308.109375 195.5 C 312.476562 194.539062 315.621094 193.710938 317.546875 193.015625 C 319.761719 192.246094 321.445312 191.382812 322.59375 190.429688 C 324.050781 189.234375 324.910156 187.585938 325.183594 185.484375 L 325.179688 185.484375 C 325.300781 185.425781 325.410156 185.367188 325.515625 185.3125 C 327.300781 184.257812 328.417969 183.617188 328.867188 183.390625 C 329.398438 183.121094 329.8125 182.957031 330.109375 182.90625 L 330.125 182.875 L 330.128906 182.875 C 331.949219 183.328125 333.179688 183.609375 333.820312 183.722656 C 334.140625 183.777344 334.453125 183.808594 334.753906 183.8125 C 335.320312 183.824219 335.84375 183.746094 336.332031 183.578125 C 337.769531 183.179688 339.71875 181.515625 342.171875 178.59375 C 343.511719 176.960938 344.457031 175.617188 345.003906 174.558594 C 345.449219 173.71875 345.550781 172.988281 345.3125 172.371094 C 345.152344 172.0625 344.976562 171.757812 344.78125 171.457031 L 344.777344 171.457031 C 344.777344 171.335938 344.773438 171.191406 344.757812 171.035156 C 344.738281 170.789062 344.695312 170.566406 344.648438 170.402344 L 344.644531 170.402344 L 401.367188 138.570312 C 402.101562 138.015625 402.371094 137.328125 402.171875 136.5 C 401.894531 135.652344 401.308594 135.191406 400.414062 135.113281 L 400.398438 135.113281 C 400.027344 135.113281 399.707031 135.191406 399.4375 135.351562 L 341.472656 167.878906 C 341.453125 167.871094 341.433594 167.859375 341.414062 167.847656 C 341.042969 167.632812 340.609375 167.433594 340.105469 167.253906 C 339.652344 167.0625 339.203125 166.929688 338.75 166.855469 C 338.304688 166.75 337.824219 166.652344 337.308594 166.566406 L 337.300781 166.5625 C 336.722656 166.464844 336.183594 166.410156 335.679688 166.402344 C 335.386719 166.394531 335.109375 166.40625 334.839844 166.429688 C 333.492188 166.609375 332.609375 166.816406 332.195312 167.050781 C 331.515625 167.386719 330.925781 167.796875 330.433594 168.269531 C 330.003906 168.6875 329.519531 169.179688 328.984375 169.753906 C 327.988281 170.929688 327.210938 171.789062 326.652344 172.34375 C 326.066406 172.941406 325.570312 173.363281 325.164062 173.613281 C 324.667969 173.925781 324.109375 174.191406 323.484375 174.414062 L 321.1875 175.039062 L 320.957031 174.371094 C 320.914062 174.253906 320.875 174.164062 320.839844 174.097656 C 320.632812 173.675781 320.347656 173.410156 319.984375 173.296875 C 319.230469 173.050781 318.511719 172.910156 317.824219 172.875 L 317.816406 172.875 C 317.824219 172.855469 317.792969 172.847656 317.722656 172.84375 C 317.332031 172.839844 315.695312 173.125 312.820312 173.710938 C 312.816406 173.71875 312.808594 173.730469 312.804688 173.738281 L 312.800781 173.738281 C 311.410156 173.84375 309.84375 174.03125 308.101562 174.300781 C 302.445312 175.152344 294.578125 176.847656 284.492188 179.390625 C 284.355469 178.316406 284.222656 177.265625 284.089844 176.238281 L 284.085938 176.238281 C 284.195312 175.238281 284.128906 174.792969 283.789062 173.949219 C 282.441406 163.792969 281.25 156.28125 280.214844 151.410156 C 279.070312 145.78125 277.792969 141.273438 276.390625 137.890625 C 276.355469 137.714844 276.246094 137.449219 276.097656 137.171875 L 276.023438 137.03125 C 275.789062 136.511719 275.550781 136.019531 275.3125 135.558594 C 273.644531 132.351562 271.523438 130.011719 268.941406 128.542969 C 267.878906 127.941406 266.75 127.484375 265.554688 127.164062 C 265.074219 126.980469 263.804688 126.757812 261.742188 126.496094 L 261.738281 126.496094 C 260.171875 125.378906 259.246094 124.925781 258.355469 124.851562 L 258.351562 124.851562 C 258.222656 124.664062 258.089844 124.480469 257.953125 124.292969 C 256.421875 122.199219 254.648438 120.082031 252.636719 117.941406 L 252.632812 117.941406 C 253.023438 115.628906 253.414062 113.851562 253.808594 112.601562 C 253.835938 112.488281 253.875 112.347656 253.933594 112.183594 C 253.96875 112.152344 254.011719 112.132812 254.054688 112.136719 C 254.1875 112.136719 254.195312 111.992188 254.09375 111.761719 C 254.402344 110.988281 254.9375 109.847656 255.695312 108.34375 C 255.875 107.929688 256.03125 107.472656 256.167969 106.972656 C 256.445312 105.945312 256.683594 104.441406 256.871094 102.46875 C 256.96875 101.390625 257.054688 100.359375 257.136719 99.378906 L 258.292969 97.214844 C 258.398438 97.015625 258.484375 96.847656 258.546875 96.707031 C 258.757812 96.25 258.894531 95.792969 258.957031 95.335938 C 259.078125 94.5 258.992188 93.285156 258.695312 91.6875 C 258.460938 90.46875 258.191406 89.457031 257.894531 88.652344 L 257.898438 88.652344 C 257.957031 88.660156 258.015625 88.667969 258.074219 88.667969 C 258.5 88.675781 258.78125 88.425781 258.539062 87.980469 C 258.410156 87.707031 258.386719 87.410156 258.46875 87.304688 C 258.578125 87.199219 258.695312 86.691406 258.707031 86.125 C 258.742188 85.585938 258.871094 84.457031 258.996094 83.621094 C 259.179688 82.464844 259.132812 81.925781 258.820312 81.300781 C 258.613281 80.839844 258.4375 80.242188 258.46875 79.972656 C 258.503906 79.378906 256.605469 74.089844 256.3125 73.949219 C 256.175781 73.894531 256.097656 73.730469 256.101562 73.621094 C 256.101562 73.488281 255.523438 72.722656 254.78125 71.925781 C 254.070312 71.132812 253.464844 70.3125 253.464844 70.152344 C 253.46875 69.960938 253.363281 69.796875 253.230469 69.796875 C 253.09375 69.792969 252.914062 69.441406 252.8125 69.007812 C 252.617188 67.980469 251.183594 66.523438 250.402344 66.511719 C 250.050781 66.503906 249.460938 66.359375 249.035156 66.1875 C 248.777344 66.089844 248.585938 66.039062 248.445312 66.035156 C 248.308594 66.035156 248.226562 66.078125 248.199219 66.171875 C 248.136719 66.359375 247.886719 66.460938 247.675781 66.457031 C 247.488281 66.453125 247.332031 66.375 247.332031 66.210938 C 247.339844 65.957031 246.707031 65.742188 246.226562 65.730469 C 245.992188 65.726562 245.792969 65.773438 245.722656 65.886719 C 245.660156 65.976562 245.589844 66.023438 245.507812 66.023438 C 245.398438 66.023438 245.265625 65.9375 245.101562 65.765625 C 244.890625 65.519531 244.515625 65.324219 244.300781 65.320312 C 244.058594 65.316406 243.84375 65.207031 243.792969 65.097656 C 243.707031 64.832031 243.351562 64.695312 242.875 64.6875 Z M 242.875 64.6875 " fill-opacity="1" fill-rule="nonzero"/></g></svg>